<svg width="50" height="50" viewBox="0 0 50 50" fill="none" xmlns="http://www.w3.org/2000/svg">
	<rect x="1" y="1" width="48" height="48" rx="24" fill="white" stroke="#E5E4E1" stroke-width="2"/>
	<path d="M33.35 18.52L29.35 21.38C28.82 21.76 28.06 21.53 27.83 20.92L25.94 15.88C25.62 15.01 24.39 15.01 24.07 15.88L22.17 20.91C21.94 21.53 21.19 21.76 20.66 21.37L16.66 18.51C15.86 17.95 14.8 18.74 15.13 19.67L19.29 31.32C19.43 31.72 19.81 31.98 20.23 31.98H29.76C30.18 31.98 30.56 31.71 30.7 31.32L34.86 19.67C35.2 18.74 34.14 17.95 33.35 18.52ZM27.5 27.75H22.5C22.09 27.75 21.75 27.41 21.75 27C21.75 26.59 22.09 26.25 22.5 26.25H27.5C27.91 26.25 28.25 26.59 28.25 27C28.25 27.41 27.91 27.75 27.5 27.75Z" fill="#B3B4BA"/>
</svg>
