<svg width="50" height="50" viewBox="0 0 50 50" fill="none" xmlns="http://www.w3.org/2000/svg">
<rect width="50" height="50" rx="25" fill="#EB3D35"/>
<path d="M33.62 21.45C32.57 16.83 28.54 14.75 25 14.75C25 14.75 25 14.75 24.99 14.75C21.46 14.75 17.42 16.82 16.37 21.44C15.2 26.6 18.36 30.97 21.22 33.72C22.28 34.74 23.64 35.25 25 35.25C26.36 35.25 27.72 34.74 28.77 33.72C31.63 30.97 34.79 26.61 33.62 21.45ZM25 26.46C23.26 26.46 21.85 25.05 21.85 23.31C21.85 21.57 23.26 20.16 25 20.16C26.74 20.16 28.15 21.57 28.15 23.31C28.15 25.05 26.74 26.46 25 26.46Z" fill="white"/>
</svg>
